<svg id="visual" viewBox="0 0 900 600" width="900" height="600" xmlns="http://www.w3.org/2000/svg" xmlns:xlink="http://www.w3.org/1999/xlink" version="1.1"><rect x="0" y="0" width="900" height="600" fill="#002233"></rect><path d="M0 423L21.5 417.7C43 412.3 86 401.7 128.8 413.7C171.7 425.7 214.3 460.3 257.2 473.7C300 487 343 479 385.8 467.3C428.7 455.7 471.3 440.3 514.2 447C557 453.7 600 482.3 642.8 485.5C685.7 488.7 728.3 466.3 771.2 448.8C814 431.3 857 418.7 878.5 412.3L900 406L900 601L878.5 601C857 601 814 601 771.2 601C728.3 601 685.7 601 642.8 601C600 601 557 601 514.2 601C471.3 601 428.7 601 385.8 601C343 601 300 601 257.2 601C214.3 601 171.7 601 128.8 601C86 601 43 601 21.5 601L0 601Z" fill="#00141e" stroke-linecap="round" stroke-linejoin="miter"></path></svg>